<?xml version="1.0" encoding="utf-8"?>
<!-- Generator: Adobe Illustrator 27.8.1, SVG Export Plug-In . SVG Version: 6.00 Build 0)  -->
<svg version="1.1"
	 id="svg342" xmlns:dc="http://purl.org/dc/elements/1.1/" xmlns:inkscape="http://www.inkscape.org/namespaces/inkscape" xmlns:cc="http://creativecommons.org/ns#" xmlns:rdf="http://www.w3.org/1999/02/22-rdf-syntax-ns#" xmlns:sodipodi="http://sodipodi.sourceforge.net/DTD/sodipodi-0.dtd" xmlns:svg="http://www.w3.org/2000/svg" inkscape:version="1.0 (4035a4fb49, 2020-05-01)" sodipodi:docname="WM_service_Logo.svg"
	 xmlns="http://www.w3.org/2000/svg" xmlns:xlink="http://www.w3.org/1999/xlink" x="0px" y="0px" viewBox="0 0 1043.7 205.3"
	 style="enable-background:new 0 0 1043.7 205.3;" xml:space="preserve">
<style type="text/css">
	.st0{fill:none;stroke:#41803C;stroke-width:8.96;stroke-linecap:round;stroke-miterlimit:10;}
	.st1{fill-rule:evenodd;clip-rule:evenodd;fill:#41803C;}
	.st2{clip-path:url(#SVGID_00000000206007846370882600000000107401543725740429_);}
	.st3{fill:#CD001A;}
	.st4{fill:url(#path163_00000180328560845852229030000013182855181642351512_);}
	.st5{fill:#41803C;}
	.st6{fill:#8DE971;}
	.st7{fill:#FF7276;}
	.st8{font-family:'Arial-BoldMT';}
	.st9{font-size:42.6667px;}
	.st10{fill:#FF0033;stroke:#FF0033;stroke-width:4;stroke-linecap:round;stroke-miterlimit:10;}
	.st11{fill:#FF0033;}
	.st12{font-family:'Noteworthy-Bold';}
	.st13{font-size:36px;}
	.st14{font-size:72px;}
</style>
<sodipodi:namedview  bordercolor="#666666" borderopacity="1" gridtolerance="10" guidetolerance="10" id="namedview344" inkscape:current-layer="svg342" inkscape:cx="994.29733" inkscape:cy="423.72394" inkscape:pageopacity="0" inkscape:pageshadow="2" inkscape:window-height="1120" inkscape:window-maximized="1" inkscape:window-width="1920" inkscape:window-x="-11" inkscape:window-y="-11" inkscape:zoom="0.62316965" objecttolerance="10" pagecolor="#ffffff" showgrid="false">
	</sodipodi:namedview>
<g id="g1231" transform="translate(-1214.2525,-797.81728)">
	<g id="g30" transform="matrix(5.0513,0,0,5.799,-2490.2317,-5848.6211)">
		<g id="g20" transform="matrix(24,0,0,24,858.872,1169.22)">
			<path id="path18" d="M0.5-0.2c0,0,0,0.1,0,0.1S0.4,0,0.3,0C0.2,0,0.1,0,0.1-0.1C0-0.1,0-0.2,0-0.2c0,0,0,0,0,0c0,0,0.1,0,0.1,0
				c0.1,0,0.1,0,0.1,0.1c0,0,0,0,0,0c0,0,0,0,0,0c0,0,0.1,0,0.1-0.1c0,0,0-0.1,0-0.1c0,0,0,0-0.1,0c0,0-0.1,0-0.1-0.1
				c0,0,0-0.1,0-0.1c0-0.1,0-0.1,0.1-0.2c0-0.1,0.1-0.1,0.2-0.1c0.1,0,0.1,0,0.1,0.1c0,0,0,0.1,0,0.1c0,0,0,0,0,0.1c0,0,0,0,0,0
				c0,0,0,0-0.1,0c0,0,0,0-0.1,0c0,0,0,0,0-0.1c0,0,0,0,0,0c0,0,0,0,0,0c0,0,0,0,0,0c0,0,0,0,0,0c0,0,0,0,0,0c0,0-0.1,0-0.1,0
				c0,0,0,0.1,0,0.1c0,0.1,0.1,0.1,0.1,0.1c0.1,0,0.1,0,0.1,0.1C0.5-0.3,0.5-0.2,0.5-0.2z"/>
		</g>
		<g id="g24" transform="matrix(24,0,0,24,870.632,1169.22)">
			<path id="path22" d="M0.5-0.6L0.3-0.1c0,0,0,0,0,0c0,0,0,0,0,0c0,0,0,0,0,0c0,0,0,0,0,0c0,0,0,0,0,0c0,0-0.1,0-0.1,0
				c0,0,0,0,0-0.1c0,0,0,0,0,0c0,0,0,0,0,0L0-0.6c0,0,0,0,0,0s0,0,0,0c0,0,0,0,0.1,0c0,0,0,0,0.1,0c0,0,0,0,0,0c0,0,0,0,0,0
				c0,0,0,0,0,0c0,0,0,0,0,0l0.1,0.3l0.1-0.4c0,0,0,0,0,0v0c0,0,0,0,0,0c0,0,0,0,0,0C0.5-0.7,0.5-0.7,0.5-0.6
				C0.5-0.7,0.5-0.7,0.5-0.6C0.5-0.7,0.5-0.7,0.5-0.6C0.5-0.6,0.5-0.6,0.5-0.6C0.5-0.6,0.5-0.6,0.5-0.6L0.5-0.6z"/>
		</g>
		<g id="g28" transform="matrix(24,0,0,24,883.592,1169.22)">
			<path id="path26" d="M0.4-0.2C0.4,0,0.3,0,0.2,0C0.2,0,0.1,0,0.1-0.1c0-0.1,0-0.1,0-0.2c0-0.1,0-0.2,0-0.3c0-0.1,0.1-0.1,0.1-0.2
				c0,0,0,0,0,0c0.1,0,0.1,0,0.1,0.1c0,0,0,0.1,0.1,0.2c0,0,0,0,0,0.1c0,0,0,0,0,0c0,0,0,0,0,0c0,0,0,0-0.1,0c0,0,0,0,0,0
				c0,0,0,0,0,0c0,0,0-0.1,0-0.1c0,0,0,0,0,0c0,0,0,0,0,0.1c0,0.1,0,0.1,0,0.2c0,0.1,0,0.1,0,0.1c0,0.1,0,0.1,0,0.1c0,0,0,0,0,0
				c0,0,0-0.1,0-0.1c0,0,0,0,0,0C0.3-0.3,0.3-0.3,0.4-0.2C0.4-0.3,0.4-0.3,0.4-0.2C0.4-0.3,0.4-0.3,0.4-0.2C0.4-0.2,0.4-0.2,0.4-0.2
				z"/>
		</g>
	</g>
	<g id="g167" transform="matrix(0.76385,0,0,0.76385,807.492,504.315)">
		<g id="g148" transform="translate(-60.6302,38.9903)">
			<g id="g146" transform="matrix(1.30916,0,0,1.30916,-996.503,-699.218)">
				<path id="path142" class="st0" d="M1476.5,871.8l-19.1-14.8l-6.3,23.4"/>
				<path id="path144" class="st1" d="M1561.6,923.2c1.2-1,2.4-3.1,3.9-5.7c3.4-5.7,7.2-13.9,10.8-22.6
					c9.8-23.7,18.6-51.9,18.6-51.9c1.4-4.2,6-6.4,10.2-5c4.2,1.4,6.4,6,5,10.2c0,0-13,35.9-25.3,60.8c-4.3,8.7-8.5,16-12.2,20.4
					c-2.3,2.7-4.5,4.5-6.4,5.4c-5.6,2.5-12.2-0.2-17.5-8.4c-5.5-8.4-10.8-22.7-16.2-32.6c-1.5-2.7-2.9-5.1-4.4-6.7
					c-0.6-0.6-0.8-1.4-1.4-1.4c-0.5,0-0.8,0.6-1.4,1.2c-1.5,1.6-3,3.8-4.5,6.4c-5.4,9.5-10.9,23.4-16.3,31.6
					c-4.9,7.5-10.7,10.3-15.6,8.2c-4.1-1.8-10-10.4-15.5-22c-8-17.1-16.3-40.6-20.4-52.6c-0.8-2.3,0.5-4.9,2.8-5.7
					c2.3-0.8,4.9,0.5,5.7,2.8c3.5,10.2,10.1,28.8,17,44.4c3.3,7.6,6.7,14.5,9.8,19.3c1.6,2.5,2.8,4.4,4.1,5.1
					c0.1-0.1,0.3-0.2,0.4-0.3c0.4-0.3,0.7-0.6,1.1-1c1.2-1.3,2.5-3.2,3.7-5.3c5.2-9.1,10.4-22.9,15.7-31.7
					c4.1-6.9,9.1-10.7,13.3-10.7c4.2,0,9.2,3.9,13.6,10.8c5.5,8.8,11.2,22.7,16.8,31.7c1,1.6,2,3,3.1,4.2
					C1560.6,922.4,1561.2,922.9,1561.6,923.2L1561.6,923.2z"/>
			</g>
		</g>
		<g id="g157" transform="matrix(1.30916,0,0,1.30916,-1057.13,-660.227)">
			<g>
				<defs>
					<path id="SVGID_1_" d="M1458.2,864.2l-4.6,16.9c-0.7,2.4-3.1,3.8-5.5,3.1c-2.4-0.6-3.8-3.1-3.2-5.5l8.1-29.9l24.4,19
						c1.9,1.5,2.3,4.3,0.8,6.3c-1.5,2-4.3,2.3-6.3,0.8L1458.2,864.2z M1559.9,922.7c1.2-1,2.4-3.1,3.9-5.7
						c3.4-5.7,7.2-13.9,10.8-22.6c9.8-23.7,18.6-51.9,18.6-51.9c1.4-4.2,6-6.4,10.2-5c4.2,1.4,6.4,6,5,10.2c0,0-13,35.9-25.3,60.8
						c-4.3,8.7-8.5,16-12.2,20.4c-2.3,2.7-4.5,4.5-6.4,5.4c-5.6,2.5-12.2-0.2-17.5-8.4c-5.5-8.4-10.8-22.7-16.2-32.6
						c-1.5-2.7-2.9-5.1-4.4-6.7c-0.6-0.6-0.8-1.4-1.4-1.4c-0.5,0-0.8,0.6-1.4,1.2c-1.5,1.6-3,3.8-4.5,6.4
						c-5.4,9.5-10.9,23.4-16.3,31.6c-4.9,7.5-10.7,10.3-15.6,8.2c-4.1-1.8-10-10.4-15.5-22c-8-17.1-16.3-40.6-20.4-52.6
						c-0.8-2.3,0.4-4.9,2.8-5.7c2.3-0.8,4.9,0.5,5.7,2.8c3.5,10.2,10.1,28.8,17,44.4c3.3,7.6,6.7,14.5,9.8,19.3
						c1.6,2.5,2.8,4.4,4.1,5.1c0.1-0.1,0.3-0.2,0.4-0.3c0.3-0.3,0.7-0.6,1.1-1c1.2-1.3,2.5-3.2,3.7-5.3c5.2-9.1,10.4-22.9,15.7-31.7
						c4.1-6.9,9.1-10.7,13.3-10.7c4.2,0,9.2,3.9,13.6,10.8c5.5,8.8,11.2,22.7,16.8,31.7c1,1.6,2.1,3,3.1,4.2
						C1558.9,921.9,1559.5,922.4,1559.9,922.7L1559.9,922.7z"/>
				</defs>
				<clipPath id="SVGID_00000150086257515917356150000013951443125177529277_">
					<use xlink:href="#SVGID_1_"  style="overflow:visible;"/>
				</clipPath>
				<g id="g155" style="clip-path:url(#SVGID_00000150086257515917356150000013951443125177529277_);">
					<g id="use153" transform="scale(0.999979,0.99006)">
						
							<image style="overflow:visible;enable-background:new    ;" width="164" height="99" id="_Image4" xlink:href="D79153B45C5B491F.png"  transform="matrix(1 0 0 0.9901 1444.8574 837.1077)">
						</image>
					</g>
				</g>
			</g>
		</g>
		<g id="g161" transform="matrix(-1.30916,0,0,-1.30916,3079.9,1610.17)">
			<path id="path159" class="st3" d="M1458.2,864.2l-4.6,16.9c-0.7,2.4-3.1,3.8-5.5,3.1c-2.4-0.6-3.8-3.1-3.2-5.5l8.1-29.9l24.4,19
				c1.9,1.5,2.3,4.3,0.8,6.3c-1.5,2-4.3,2.3-6.3,0.8L1458.2,864.2z M1559.9,922.7c1.2-1,2.4-3.1,3.9-5.7c3.4-5.7,7.2-13.9,10.8-22.6
				c9.8-23.7,18.6-51.9,18.6-51.9c1.4-4.2,6-6.4,10.2-5c4.2,1.4,6.4,6,5,10.2c0,0-13,35.9-25.3,60.8c-4.3,8.7-8.5,16-12.2,20.4
				c-2.3,2.7-4.5,4.5-6.4,5.4c-5.6,2.5-12.2-0.2-17.5-8.4c-5.5-8.4-10.8-22.7-16.2-32.6c-1.5-2.7-2.9-5.1-4.4-6.7
				c-0.6-0.6-0.8-1.4-1.4-1.4c-0.5,0-0.8,0.6-1.4,1.2c-1.5,1.6-3,3.8-4.5,6.4c-5.4,9.5-10.9,23.4-16.3,31.6
				c-4.9,7.5-10.7,10.3-15.6,8.2c-4.1-1.8-10-10.4-15.5-22c-8-17.1-16.3-40.6-20.4-52.6c-0.8-2.3,0.4-4.9,2.8-5.7
				c2.3-0.8,4.9,0.5,5.7,2.8c3.5,10.2,10.1,28.8,17,44.4c3.3,7.6,6.7,14.5,9.8,19.3c1.6,2.5,2.8,4.4,4.1,5.1
				c0.1-0.1,0.3-0.2,0.4-0.3c0.3-0.3,0.7-0.6,1.1-1c1.2-1.3,2.5-3.2,3.7-5.3c5.2-9.1,10.4-22.9,15.7-31.7
				c4.1-6.9,9.1-10.7,13.3-10.7c4.2,0,9.2,3.9,13.6,10.8c5.5,8.8,11.2,22.7,16.8,31.7c1,1.6,2.1,3,3.1,4.2
				C1558.9,921.9,1559.5,922.4,1559.9,922.7L1559.9,922.7z"/>
		</g>
		<g id="g165" transform="matrix(-1.30916,0,0,-1.30916,3076.55,1608.47)">
			
				<radialGradient id="path163_00000057148773424349707850000010554666820500483503_" cx="1605.7811" cy="773.3337" r="1" gradientTransform="matrix(-0.6452 -98.8356 -98.8356 0.6452 78993.3438 159108.6875)" gradientUnits="userSpaceOnUse">
				<stop  offset="0" style="stop-color:#FF7276"/>
				<stop  offset="0.55" style="stop-color:#F65A5E"/>
				<stop  offset="1" style="stop-color:#D70107"/>
			</radialGradient>
			<path id="path163" style="fill:url(#path163_00000057148773424349707850000010554666820500483503_);" d="M1458.2,864.2l-4.6,16.9
				c-0.7,2.4-3.1,3.8-5.5,3.1c-2.4-0.6-3.8-3.1-3.2-5.5l8.1-29.9l24.4,19c1.9,1.5,2.3,4.3,0.8,6.3c-1.5,2-4.3,2.3-6.3,0.8
				L1458.2,864.2z M1559.9,922.7c1.2-1,2.4-3.1,3.9-5.7c3.4-5.7,7.2-13.9,10.8-22.6c9.8-23.7,18.6-51.9,18.6-51.9
				c1.4-4.2,6-6.4,10.2-5c4.2,1.4,6.4,6,5,10.2c0,0-13,35.9-25.3,60.8c-4.3,8.7-8.5,16-12.2,20.4c-2.3,2.7-4.5,4.5-6.4,5.4
				c-5.6,2.5-12.2-0.2-17.5-8.4c-5.5-8.4-10.8-22.7-16.2-32.6c-1.5-2.7-2.9-5.1-4.4-6.7c-0.6-0.6-0.8-1.4-1.4-1.4
				c-0.5,0-0.8,0.6-1.4,1.2c-1.5,1.6-3,3.8-4.5,6.4c-5.4,9.5-10.9,23.4-16.3,31.6c-4.9,7.5-10.7,10.3-15.6,8.2
				c-4.1-1.8-10-10.4-15.5-22c-8-17.1-16.3-40.6-20.4-52.6c-0.8-2.3,0.4-4.9,2.8-5.7c2.3-0.8,4.9,0.5,5.7,2.8
				c3.5,10.2,10.1,28.8,17,44.4c3.3,7.6,6.7,14.5,9.8,19.3c1.6,2.5,2.8,4.4,4.1,5.1c0.1-0.1,0.3-0.2,0.4-0.3c0.3-0.3,0.7-0.6,1.1-1
				c1.2-1.3,2.5-3.2,3.7-5.3c5.2-9.1,10.4-22.9,15.7-31.7c4.1-6.9,9.1-10.7,13.3-10.7c4.2,0,9.2,3.9,13.6,10.8
				c5.5,8.8,11.2,22.7,16.8,31.7c1,1.6,2.1,3,3.1,4.2C1558.9,921.9,1559.5,922.4,1559.9,922.7L1559.9,922.7z"/>
		</g>
	</g>
	<g id="g306" transform="translate(345.999,193.677)">
		<g id="g266" transform="translate(-1.95596,3.17243)">
			<g id="g250" transform="matrix(2.85899,0,0,2.85899,-2402.68,-1346.61)">
				<g id="g240" transform="matrix(21.3362,0,0,21.3362,1276.72,727.124)">
					<path id="path238" class="st5" d="M0.5-0.1C0.5,0,0.4,0,0.5-0.1C0.4,0,0.4,0,0.4,0c0,0,0,0,0,0c0,0,0-0.1,0-0.1
						c0,0,0,0.1-0.1,0.1S0.2,0,0.1,0c0,0-0.1,0-0.1-0.1c0,0,0,0,0-0.1c0-0.1,0-0.1,0.1-0.1c0.1,0,0.1-0.1,0.2-0.1c0,0,0,0,0,0
						c0,0,0,0,0,0c0,0,0,0,0,0c0,0,0,0,0,0c0,0,0,0,0,0c0,0,0,0,0,0c0,0,0,0,0,0c0,0,0,0,0,0c0,0,0,0,0,0c0,0,0,0,0,0
						c0,0,0,0,0.1-0.1c0,0,0.1,0,0.2,0c0,0,0.1,0,0.1,0.1c0,0,0,0.1,0,0.1C0.4-0.2,0.4-0.2,0.5-0.1C0.4-0.1,0.4-0.1,0.5-0.1
						C0.5-0.1,0.5-0.1,0.5-0.1C0.5-0.1,0.5-0.1,0.5-0.1z M0.3-0.3C0.3-0.3,0.2-0.3,0.3-0.3c-0.1,0-0.1,0.1-0.1,0.1c0,0,0,0,0,0.1
						c0,0,0,0,0,0c0,0,0,0,0,0c0,0,0,0,0.1-0.1C0.3-0.2,0.3-0.2,0.3-0.3z"/>
				</g>
				<g id="g244" transform="matrix(21.3362,0,0,21.3362,1287.37,727.124)">
					<path id="path242" class="st5" d="M0.5-0.5C0.5-0.5,0.5-0.5,0.5-0.5C0.5-0.5,0.5-0.4,0.5-0.5c0,0.1,0,0.1,0,0.1
						c0,0.1-0.1,0.2-0.1,0.3c0,0,0,0.1,0,0.1c0,0,0,0-0.1,0c0,0-0.1,0-0.1,0c0,0,0,0,0,0v0c0,0,0,0,0,0L0-0.4c0,0,0,0,0,0
						c0,0,0,0,0,0c0,0,0,0,0.1,0c0,0,0,0,0,0c0,0,0.1,0,0.1,0.1c0,0.1,0,0.1,0.1,0.2l0.1-0.3c0,0,0,0,0,0c0,0,0,0,0,0
						S0.4-0.5,0.5-0.5C0.4-0.5,0.5-0.5,0.5-0.5z"/>
				</g>
				<g id="g248" transform="matrix(21.3362,0,0,21.3362,1298.15,727.124)">
					<path id="path246" class="st5" d="M0.4-0.1C0.4-0.1,0.4-0.1,0.4-0.1C0.3,0,0.3,0,0.3,0c0,0-0.1,0-0.1,0c0,0-0.1,0-0.1-0.1
						c0,0,0-0.1,0-0.2c0-0.1,0-0.1,0-0.2c0-0.1,0.1-0.1,0.1-0.1c0,0,0,0,0,0c0.1,0,0.1,0,0.1,0.1c0,0,0,0.1-0.1,0.1
						c0,0.1-0.1,0.1-0.2,0.1c0,0,0,0,0,0c0,0,0,0,0,0c0,0,0,0,0,0c0,0,0,0,0,0C0.3-0.1,0.3-0.1,0.4-0.1C0.3-0.2,0.3-0.2,0.4-0.1
						C0.3-0.2,0.3-0.2,0.4-0.1C0.3-0.2,0.4-0.2,0.4-0.1C0.4-0.1,0.4-0.1,0.4-0.1z M0.2-0.4C0.2-0.4,0.2-0.4,0.2-0.4
						C0.1-0.3,0.1-0.3,0.1-0.2c0,0,0.1,0,0.1-0.1S0.3-0.4,0.2-0.4C0.3-0.4,0.3-0.4,0.2-0.4z"/>
				</g>
			</g>
			<g id="g264" transform="matrix(2.85899,0,0,2.85899,-2404.09,-1346.19)">
				<g id="g254" transform="matrix(21.3362,0,0,21.3362,1276.72,727.124)">
					<path id="path252" class="st6" d="M0.5-0.1C0.5,0,0.4,0,0.5-0.1C0.4,0,0.4,0,0.4,0c0,0,0,0,0,0c0,0,0-0.1,0-0.1
						c0,0,0,0.1-0.1,0.1S0.2,0,0.1,0c0,0-0.1,0-0.1-0.1c0,0,0,0,0-0.1c0-0.1,0-0.1,0.1-0.1c0.1,0,0.1-0.1,0.2-0.1c0,0,0,0,0,0
						c0,0,0,0,0,0c0,0,0,0,0,0c0,0,0,0,0,0c0,0,0,0,0,0c0,0,0,0,0,0c0,0,0,0,0,0c0,0,0,0,0,0c0,0,0,0,0,0c0,0,0,0,0,0
						c0,0,0,0,0.1-0.1c0,0,0.1,0,0.2,0c0,0,0.1,0,0.1,0.1c0,0,0,0.1,0,0.1C0.4-0.2,0.4-0.2,0.5-0.1C0.4-0.1,0.4-0.1,0.5-0.1
						C0.5-0.1,0.5-0.1,0.5-0.1C0.5-0.1,0.5-0.1,0.5-0.1z M0.3-0.3C0.3-0.3,0.2-0.3,0.3-0.3c-0.1,0-0.1,0.1-0.1,0.1c0,0,0,0,0,0.1
						c0,0,0,0,0,0c0,0,0,0,0,0c0,0,0,0,0.1-0.1C0.3-0.2,0.3-0.2,0.3-0.3z"/>
				</g>
				<g id="g258" transform="matrix(21.3362,0,0,21.3362,1287.37,727.124)">
					<path id="path256" class="st6" d="M0.5-0.5C0.5-0.5,0.5-0.5,0.5-0.5C0.5-0.5,0.5-0.4,0.5-0.5c0,0.1,0,0.1,0,0.1
						c0,0.1-0.1,0.2-0.1,0.3c0,0,0,0.1,0,0.1c0,0,0,0-0.1,0c0,0-0.1,0-0.1,0c0,0,0,0,0,0v0c0,0,0,0,0,0L0-0.4c0,0,0,0,0,0
						c0,0,0,0,0,0c0,0,0,0,0.1,0c0,0,0,0,0,0c0,0,0.1,0,0.1,0.1c0,0.1,0,0.1,0.1,0.2l0.1-0.3c0,0,0,0,0,0c0,0,0,0,0,0
						S0.4-0.5,0.5-0.5C0.4-0.5,0.5-0.5,0.5-0.5z"/>
				</g>
				<g id="g262" transform="matrix(21.3362,0,0,21.3362,1298.15,727.124)">
					<path id="path260" class="st6" d="M0.4-0.1C0.4-0.1,0.4-0.1,0.4-0.1C0.3,0,0.3,0,0.3,0c0,0-0.1,0-0.1,0c0,0-0.1,0-0.1-0.1
						c0,0,0-0.1,0-0.2c0-0.1,0-0.1,0-0.2c0-0.1,0.1-0.1,0.1-0.1c0,0,0,0,0,0c0.1,0,0.1,0,0.1,0.1c0,0,0,0.1-0.1,0.1
						c0,0.1-0.1,0.1-0.2,0.1c0,0,0,0,0,0c0,0,0,0,0,0c0,0,0,0,0,0c0,0,0,0,0,0C0.3-0.1,0.3-0.1,0.4-0.1C0.3-0.2,0.3-0.2,0.4-0.1
						C0.3-0.2,0.3-0.2,0.4-0.1C0.3-0.2,0.4-0.2,0.4-0.1C0.4-0.1,0.4-0.1,0.4-0.1z M0.2-0.4C0.2-0.4,0.2-0.4,0.2-0.4
						C0.1-0.3,0.1-0.3,0.1-0.2c0,0,0.1,0,0.1-0.1S0.3-0.4,0.2-0.4C0.3-0.4,0.3-0.4,0.2-0.4z"/>
				</g>
			</g>
		</g>
		<g id="g304" transform="translate(-6.69178,-8.95053)">
			<g id="g284" transform="translate(-23.8749,10.5097)">
				<g id="g270" transform="matrix(61,0,0,61,1405.39,684.532)">
					<path id="path268" class="st3" d="M0.4-0.1C0.4-0.1,0.4-0.1,0.4-0.1C0.3,0,0.3,0,0.3,0c0,0-0.1,0-0.1,0c0,0-0.1,0-0.1-0.1
						c0,0,0-0.1,0-0.2c0-0.1,0-0.1,0-0.2c0-0.1,0.1-0.1,0.1-0.1c0,0,0,0,0,0c0.1,0,0.1,0,0.1,0.1c0,0,0,0.1-0.1,0.1
						c0,0.1-0.1,0.1-0.2,0.1c0,0,0,0,0,0c0,0,0,0,0,0c0,0,0,0,0,0c0,0,0,0,0,0C0.3-0.1,0.3-0.1,0.4-0.1C0.3-0.1,0.3-0.2,0.4-0.1
						C0.3-0.2,0.3-0.2,0.4-0.1C0.3-0.2,0.4-0.2,0.4-0.1C0.4-0.1,0.4-0.1,0.4-0.1z M0.2-0.4C0.2-0.4,0.2-0.4,0.2-0.4
						C0.1-0.3,0.1-0.3,0.1-0.2c0,0,0.1,0,0.1-0.1S0.3-0.4,0.2-0.4C0.3-0.4,0.3-0.4,0.2-0.4z"/>
				</g>
				<g id="g274" transform="matrix(61,0,0,61,1434.67,684.532)">
					<path id="path272" class="st3" d="M0.4-0.5C0.3-0.5,0.3-0.5,0.4-0.5C0.3-0.5,0.3-0.5,0.4-0.5C0.3-0.5,0.3-0.5,0.4-0.5l-0.1,0
						v0.4c0,0,0,0,0,0c0,0,0,0,0,0c0,0,0,0,0,0c0,0,0,0-0.1,0c0,0-0.1,0-0.1,0c0,0,0,0,0-0.1c0,0,0-0.1,0-0.1c0-0.1,0-0.2,0-0.2
						c0,0,0,0,0,0s0,0,0,0c0,0,0,0,0,0c0,0-0.1,0-0.1,0c0,0,0,0,0,0c0,0,0,0,0,0c0,0,0,0,0,0c0,0,0,0,0.1,0l0-0.1c0,0,0,0,0,0
						c0,0,0,0,0,0s0,0,0,0c0,0,0,0,0.1,0c0,0,0.1,0,0.1,0c0,0,0,0,0,0c0,0,0,0,0,0c0,0,0,0,0,0l0,0.1c0,0,0,0,0,0c0,0,0,0,0,0
						c0,0,0,0,0,0C0.4-0.6,0.4-0.5,0.4-0.5C0.4-0.5,0.4-0.5,0.4-0.5C0.4-0.5,0.4-0.5,0.4-0.5z"/>
				</g>
				<g id="g278" transform="matrix(61,0,0,61,1459.74,684.532)">
					<path id="path276" class="st3" d="M0.4-0.1C0.4-0.1,0.4-0.1,0.4-0.1C0.3,0,0.3,0,0.3,0c0,0-0.1,0-0.1,0c0,0-0.1,0-0.1-0.1
						c0,0,0-0.1,0-0.2c0-0.1,0-0.1,0-0.2c0-0.1,0.1-0.1,0.1-0.1c0,0,0,0,0,0c0.1,0,0.1,0,0.1,0.1c0,0,0,0.1-0.1,0.1
						c0,0.1-0.1,0.1-0.2,0.1c0,0,0,0,0,0c0,0,0,0,0,0c0,0,0,0,0,0c0,0,0,0,0,0C0.3-0.1,0.3-0.1,0.4-0.1C0.3-0.1,0.3-0.2,0.4-0.1
						C0.3-0.2,0.3-0.2,0.4-0.1C0.3-0.2,0.4-0.2,0.4-0.1C0.4-0.1,0.4-0.1,0.4-0.1z M0.2-0.4C0.2-0.4,0.2-0.4,0.2-0.4
						C0.1-0.3,0.1-0.3,0.1-0.2c0,0,0.1,0,0.1-0.1S0.3-0.4,0.2-0.4C0.3-0.4,0.3-0.4,0.2-0.4z"/>
				</g>
				<g id="g282" transform="matrix(61,0,0,61,1487.61,684.532)">
					<path id="path280" class="st3" d="M0.4-0.4C0.4-0.4,0.4-0.4,0.4-0.4C0.3-0.4,0.3-0.4,0.4-0.4L0.2-0.2v0.1c0,0,0,0,0,0
						c0,0,0,0,0,0s0,0,0,0c0,0,0,0-0.1,0c0,0,0,0-0.1,0c0,0,0,0,0,0c0,0,0,0,0,0c0,0,0,0,0,0v-0.3c0,0,0,0,0,0c0,0,0,0,0,0
						c0,0,0,0,0,0c0,0,0,0,0.1,0c0,0,0.1,0,0.1,0c0,0,0,0,0,0c0,0,0,0,0,0c0,0,0,0,0,0l0,0l0.1-0.1c0,0,0,0,0,0
						C0.3-0.5,0.3-0.5,0.4-0.4C0.3-0.5,0.3-0.5,0.4-0.4C0.4-0.5,0.4-0.5,0.4-0.4C0.4-0.5,0.4-0.5,0.4-0.4z"/>
				</g>
			</g>
			<g id="g302" transform="translate(-24.9259,10.1549)">
				<g id="g288" transform="matrix(61,0,0,61,1405.39,684.532)">
					<path id="path286" class="st7" d="M0.4-0.1C0.4-0.1,0.4-0.1,0.4-0.1C0.3,0,0.3,0,0.3,0c0,0-0.1,0-0.1,0c0,0-0.1,0-0.1-0.1
						c0,0,0-0.1,0-0.2c0-0.1,0-0.1,0-0.2c0-0.1,0.1-0.1,0.1-0.1c0,0,0,0,0,0c0.1,0,0.1,0,0.1,0.1c0,0,0,0.1-0.1,0.1
						c0,0.1-0.1,0.1-0.2,0.1c0,0,0,0,0,0c0,0,0,0,0,0c0,0,0,0,0,0c0,0,0,0,0,0C0.3-0.1,0.3-0.1,0.4-0.1C0.3-0.1,0.3-0.2,0.4-0.1
						C0.3-0.2,0.3-0.2,0.4-0.1C0.3-0.2,0.4-0.2,0.4-0.1C0.4-0.1,0.4-0.1,0.4-0.1z M0.2-0.4C0.2-0.4,0.2-0.4,0.2-0.4
						C0.1-0.3,0.1-0.3,0.1-0.2c0,0,0.1,0,0.1-0.1S0.3-0.4,0.2-0.4C0.3-0.4,0.3-0.4,0.2-0.4z"/>
				</g>
				<g id="g292" transform="matrix(61,0,0,61,1434.67,684.532)">
					<path id="path290" class="st7" d="M0.4-0.5C0.3-0.5,0.3-0.5,0.4-0.5C0.3-0.5,0.3-0.5,0.4-0.5C0.3-0.5,0.3-0.5,0.4-0.5l-0.1,0
						v0.4c0,0,0,0,0,0c0,0,0,0,0,0c0,0,0,0,0,0c0,0,0,0-0.1,0c0,0-0.1,0-0.1,0c0,0,0,0,0-0.1c0,0,0-0.1,0-0.1c0-0.1,0-0.2,0-0.2
						c0,0,0,0,0,0s0,0,0,0c0,0,0,0,0,0c0,0-0.1,0-0.1,0c0,0,0,0,0,0c0,0,0,0,0,0c0,0,0,0,0,0c0,0,0,0,0.1,0l0-0.1c0,0,0,0,0,0
						c0,0,0,0,0,0s0,0,0,0c0,0,0,0,0.1,0c0,0,0.1,0,0.1,0c0,0,0,0,0,0c0,0,0,0,0,0c0,0,0,0,0,0l0,0.1c0,0,0,0,0,0c0,0,0,0,0,0
						c0,0,0,0,0,0C0.4-0.6,0.4-0.5,0.4-0.5C0.4-0.5,0.4-0.5,0.4-0.5C0.4-0.5,0.4-0.5,0.4-0.5z"/>
				</g>
				<g id="g296" transform="matrix(61,0,0,61,1459.74,684.532)">
					<path id="path294" class="st7" d="M0.4-0.1C0.4-0.1,0.4-0.1,0.4-0.1C0.3,0,0.3,0,0.3,0c0,0-0.1,0-0.1,0c0,0-0.1,0-0.1-0.1
						c0,0,0-0.1,0-0.2c0-0.1,0-0.1,0-0.2c0-0.1,0.1-0.1,0.1-0.1c0,0,0,0,0,0c0.1,0,0.1,0,0.1,0.1c0,0,0,0.1-0.1,0.1
						c0,0.1-0.1,0.1-0.2,0.1c0,0,0,0,0,0c0,0,0,0,0,0c0,0,0,0,0,0c0,0,0,0,0,0C0.3-0.1,0.3-0.1,0.4-0.1C0.3-0.1,0.3-0.2,0.4-0.1
						C0.3-0.2,0.3-0.2,0.4-0.1C0.3-0.2,0.4-0.2,0.4-0.1C0.4-0.1,0.4-0.1,0.4-0.1z M0.2-0.4C0.2-0.4,0.2-0.4,0.2-0.4
						C0.1-0.3,0.1-0.3,0.1-0.2c0,0,0.1,0,0.1-0.1S0.3-0.4,0.2-0.4C0.3-0.4,0.3-0.4,0.2-0.4z"/>
				</g>
				<g id="g300" transform="matrix(61,0,0,61,1487.61,684.532)">
					<path id="path298" class="st7" d="M0.4-0.4C0.4-0.4,0.4-0.4,0.4-0.4C0.3-0.4,0.3-0.4,0.4-0.4L0.2-0.2v0.1c0,0,0,0,0,0
						c0,0,0,0,0,0s0,0,0,0c0,0,0,0-0.1,0c0,0,0,0-0.1,0c0,0,0,0,0,0c0,0,0,0,0,0c0,0,0,0,0,0v-0.3c0,0,0,0,0,0c0,0,0,0,0,0
						c0,0,0,0,0,0c0,0,0,0,0.1,0c0,0,0.1,0,0.1,0c0,0,0,0,0,0c0,0,0,0,0,0c0,0,0,0,0,0l0,0l0.1-0.1c0,0,0,0,0,0
						C0.3-0.5,0.3-0.5,0.4-0.4C0.3-0.5,0.3-0.5,0.4-0.4C0.4-0.5,0.4-0.5,0.4-0.4C0.4-0.5,0.4-0.5,0.4-0.4z"/>
				</g>
			</g>
		</g>
	</g>
</g>
<text transform="matrix(1 0 0 1 -1.7493 196.2941)" class="st8 st9">A Windows service for sharing wavelengths</text>
<line class="st10" x1="238.6" y1="161" x2="386.3" y2="202.1"/>
<line class="st10" x1="633.9" y1="31.5" x2="818.3" y2="133.2"/>
<line class="st10" x1="386.3" y1="161" x2="238.6" y2="202.1"/>
<line class="st10" x1="633.9" y1="133.2" x2="818.3" y2="31.5"/>
<text transform="matrix(0.9876 -0.1572 0.1572 0.9876 280.7565 165.1912)" class="st11 st12 st13">App</text>
<text transform="matrix(0.9606 0.2779 -0.2779 0.9606 825.5253 66.5505)" class="st11 st12 st14">App</text>
</svg>
